<mxfile host="app.diagrams.net" modified="2023-11-21T19:22:40.854Z" agent="Mozilla/5.0 (Windows NT 10.0; Win64; x64) AppleWebKit/537.36 (KHTML, like Gecko) Chrome/119.0.0.0 Safari/537.36" etag="hTlrW-nrluSzWQ8j7tIN" version="22.1.3" type="github">
  <diagram name="Page-1" id="mQyoh0kIBbY8Y1JT7s1j">
    <mxGraphModel dx="1050" dy="522" grid="1" gridSize="10" guides="1" tooltips="1" connect="1" arrows="1" fold="1" page="1" pageScale="1" pageWidth="850" pageHeight="1100" math="0" shadow="0">
      <root>
        <mxCell id="0" />
        <mxCell id="1" parent="0" />
        <mxCell id="6wLQkJ3tNqxlGUoKIvK2-2" value="Order" style="html=1;dashed=0;whiteSpace=wrap;" vertex="1" parent="1">
          <mxGeometry x="270" y="310" width="100" height="50" as="geometry" />
        </mxCell>
        <mxCell id="6wLQkJ3tNqxlGUoKIvK2-3" value="Product" style="html=1;dashed=0;whiteSpace=wrap;" vertex="1" parent="1">
          <mxGeometry x="400" y="480" width="100" height="50" as="geometry" />
        </mxCell>
        <mxCell id="6wLQkJ3tNqxlGUoKIvK2-4" value="Invoice" style="html=1;dashed=0;whiteSpace=wrap;" vertex="1" parent="1">
          <mxGeometry x="570" y="310" width="100" height="50" as="geometry" />
        </mxCell>
        <mxCell id="6wLQkJ3tNqxlGUoKIvK2-5" value="Customer" style="html=1;dashed=0;whiteSpace=wrap;" vertex="1" parent="1">
          <mxGeometry x="270" y="110" width="100" height="40" as="geometry" />
        </mxCell>
        <mxCell id="6wLQkJ3tNqxlGUoKIvK2-6" value="Room" style="shape=ellipse;html=1;dashed=0;whiteSpace=wrap;perimeter=ellipsePerimeter;" vertex="1" parent="1">
          <mxGeometry x="480" y="590" width="100" height="50" as="geometry" />
        </mxCell>
        <mxCell id="6wLQkJ3tNqxlGUoKIvK2-7" value="Product Number" style="shape=ellipse;html=1;dashed=0;whiteSpace=wrap;perimeter=ellipsePerimeter;" vertex="1" parent="1">
          <mxGeometry x="210" y="460" width="100" height="50" as="geometry" />
        </mxCell>
        <mxCell id="6wLQkJ3tNqxlGUoKIvK2-8" value="Finish" style="shape=ellipse;html=1;dashed=0;whiteSpace=wrap;perimeter=ellipsePerimeter;" vertex="1" parent="1">
          <mxGeometry x="560" y="525" width="100" height="50" as="geometry" />
        </mxCell>
        <mxCell id="6wLQkJ3tNqxlGUoKIvK2-9" value="Unit Price" style="shape=ellipse;html=1;dashed=0;whiteSpace=wrap;perimeter=ellipsePerimeter;" vertex="1" parent="1">
          <mxGeometry x="570" y="460" width="100" height="50" as="geometry" />
        </mxCell>
        <mxCell id="6wLQkJ3tNqxlGUoKIvK2-10" value="Quantity on hand" style="shape=ellipse;html=1;dashed=0;whiteSpace=wrap;perimeter=ellipsePerimeter;" vertex="1" parent="1">
          <mxGeometry x="340" y="590" width="100" height="50" as="geometry" />
        </mxCell>
        <mxCell id="6wLQkJ3tNqxlGUoKIvK2-11" value="Description" style="shape=ellipse;html=1;dashed=0;whiteSpace=wrap;perimeter=ellipsePerimeter;" vertex="1" parent="1">
          <mxGeometry x="250" y="530" width="100" height="50" as="geometry" />
        </mxCell>
        <mxCell id="6wLQkJ3tNqxlGUoKIvK2-12" value="Ship On" style="shape=rhombus;html=1;dashed=0;whiteSpace=wrap;perimeter=rhombusPerimeter;" vertex="1" parent="1">
          <mxGeometry x="560" y="380" width="100" height="60" as="geometry" />
        </mxCell>
        <mxCell id="6wLQkJ3tNqxlGUoKIvK2-13" value="Request on&amp;nbsp;" style="shape=rhombus;html=1;dashed=0;whiteSpace=wrap;perimeter=rhombusPerimeter;" vertex="1" parent="1">
          <mxGeometry x="270" y="380" width="110" height="60" as="geometry" />
        </mxCell>
        <mxCell id="6wLQkJ3tNqxlGUoKIvK2-14" value="Quantity orderd" style="shape=ellipse;html=1;dashed=0;whiteSpace=wrap;perimeter=ellipsePerimeter;" vertex="1" parent="1">
          <mxGeometry x="100" y="410" width="100" height="50" as="geometry" />
        </mxCell>
        <mxCell id="6wLQkJ3tNqxlGUoKIvK2-28" value="" style="endArrow=none;html=1;rounded=0;entryX=0;entryY=0.25;entryDx=0;entryDy=0;exitX=1;exitY=0.5;exitDx=0;exitDy=0;" edge="1" parent="1" source="6wLQkJ3tNqxlGUoKIvK2-7" target="6wLQkJ3tNqxlGUoKIvK2-3">
          <mxGeometry relative="1" as="geometry">
            <mxPoint x="320" y="490" as="sourcePoint" />
            <mxPoint x="360" y="490" as="targetPoint" />
          </mxGeometry>
        </mxCell>
        <mxCell id="6wLQkJ3tNqxlGUoKIvK2-30" value="" style="endArrow=none;html=1;rounded=0;exitX=0.952;exitY=0.176;exitDx=0;exitDy=0;exitPerimeter=0;" edge="1" parent="1" source="6wLQkJ3tNqxlGUoKIvK2-11">
          <mxGeometry relative="1" as="geometry">
            <mxPoint x="320" y="495" as="sourcePoint" />
            <mxPoint x="400" y="510" as="targetPoint" />
          </mxGeometry>
        </mxCell>
        <mxCell id="6wLQkJ3tNqxlGUoKIvK2-31" value="" style="endArrow=none;html=1;rounded=0;entryX=0.25;entryY=1;entryDx=0;entryDy=0;" edge="1" parent="1" source="6wLQkJ3tNqxlGUoKIvK2-10" target="6wLQkJ3tNqxlGUoKIvK2-3">
          <mxGeometry relative="1" as="geometry">
            <mxPoint x="330" y="505" as="sourcePoint" />
            <mxPoint x="420" y="513" as="targetPoint" />
          </mxGeometry>
        </mxCell>
        <mxCell id="6wLQkJ3tNqxlGUoKIvK2-32" value="" style="endArrow=none;html=1;rounded=0;exitX=0.628;exitY=1.032;exitDx=0;exitDy=0;exitPerimeter=0;" edge="1" parent="1" source="6wLQkJ3tNqxlGUoKIvK2-3" target="6wLQkJ3tNqxlGUoKIvK2-6">
          <mxGeometry relative="1" as="geometry">
            <mxPoint x="430" y="560" as="sourcePoint" />
            <mxPoint x="520" y="568" as="targetPoint" />
          </mxGeometry>
        </mxCell>
        <mxCell id="6wLQkJ3tNqxlGUoKIvK2-33" value="" style="endArrow=none;html=1;rounded=0;entryX=0.06;entryY=0.228;entryDx=0;entryDy=0;exitX=1;exitY=0.5;exitDx=0;exitDy=0;entryPerimeter=0;" edge="1" parent="1" source="6wLQkJ3tNqxlGUoKIvK2-3" target="6wLQkJ3tNqxlGUoKIvK2-8">
          <mxGeometry relative="1" as="geometry">
            <mxPoint x="500" y="525" as="sourcePoint" />
            <mxPoint x="590" y="533" as="targetPoint" />
          </mxGeometry>
        </mxCell>
        <mxCell id="6wLQkJ3tNqxlGUoKIvK2-34" value="" style="endArrow=none;html=1;rounded=0;" edge="1" parent="1" source="6wLQkJ3tNqxlGUoKIvK2-3" target="6wLQkJ3tNqxlGUoKIvK2-9">
          <mxGeometry relative="1" as="geometry">
            <mxPoint x="495" y="490" as="sourcePoint" />
            <mxPoint x="570" y="500" as="targetPoint" />
          </mxGeometry>
        </mxCell>
        <mxCell id="6wLQkJ3tNqxlGUoKIvK2-37" value="" style="endArrow=none;html=1;rounded=0;entryX=0;entryY=0.5;entryDx=0;entryDy=0;" edge="1" parent="1" source="6wLQkJ3tNqxlGUoKIvK2-14" target="6wLQkJ3tNqxlGUoKIvK2-13">
          <mxGeometry relative="1" as="geometry">
            <mxPoint x="165" y="430" as="sourcePoint" />
            <mxPoint x="325" y="430" as="targetPoint" />
          </mxGeometry>
        </mxCell>
        <mxCell id="6wLQkJ3tNqxlGUoKIvK2-38" value="" style="endArrow=none;html=1;rounded=0;entryX=0;entryY=0;entryDx=0;entryDy=0;exitX=0.5;exitY=1;exitDx=0;exitDy=0;" edge="1" parent="1" source="6wLQkJ3tNqxlGUoKIvK2-13" target="6wLQkJ3tNqxlGUoKIvK2-3">
          <mxGeometry relative="1" as="geometry">
            <mxPoint x="240" y="430" as="sourcePoint" />
            <mxPoint x="400" y="430" as="targetPoint" />
          </mxGeometry>
        </mxCell>
        <mxCell id="6wLQkJ3tNqxlGUoKIvK2-84" value="N" style="edgeLabel;html=1;align=center;verticalAlign=middle;resizable=0;points=[];" vertex="1" connectable="0" parent="6wLQkJ3tNqxlGUoKIvK2-38">
          <mxGeometry x="-0.0176" y="-2" relative="1" as="geometry">
            <mxPoint x="9" y="-7" as="offset" />
          </mxGeometry>
        </mxCell>
        <mxCell id="6wLQkJ3tNqxlGUoKIvK2-39" value="Quantity Shiped" style="shape=ellipse;html=1;dashed=0;whiteSpace=wrap;perimeter=ellipsePerimeter;" vertex="1" parent="1">
          <mxGeometry x="690" y="430" width="100" height="50" as="geometry" />
        </mxCell>
        <mxCell id="6wLQkJ3tNqxlGUoKIvK2-40" value="" style="endArrow=none;html=1;rounded=0;exitX=1;exitY=0;exitDx=0;exitDy=0;entryX=0;entryY=1;entryDx=0;entryDy=0;" edge="1" parent="1" source="6wLQkJ3tNqxlGUoKIvK2-3" target="6wLQkJ3tNqxlGUoKIvK2-12">
          <mxGeometry relative="1" as="geometry">
            <mxPoint x="425" y="410" as="sourcePoint" />
            <mxPoint x="585" y="410" as="targetPoint" />
          </mxGeometry>
        </mxCell>
        <mxCell id="6wLQkJ3tNqxlGUoKIvK2-85" value="N" style="edgeLabel;html=1;align=center;verticalAlign=middle;resizable=0;points=[];" vertex="1" connectable="0" parent="6wLQkJ3tNqxlGUoKIvK2-40">
          <mxGeometry x="-0.0341" y="-1" relative="1" as="geometry">
            <mxPoint x="-22" y="1" as="offset" />
          </mxGeometry>
        </mxCell>
        <mxCell id="6wLQkJ3tNqxlGUoKIvK2-41" value="" style="endArrow=none;html=1;rounded=0;entryX=0;entryY=0.5;entryDx=0;entryDy=0;exitX=1;exitY=1;exitDx=0;exitDy=0;" edge="1" parent="1" source="6wLQkJ3tNqxlGUoKIvK2-12" target="6wLQkJ3tNqxlGUoKIvK2-39">
          <mxGeometry relative="1" as="geometry">
            <mxPoint x="600" y="420" as="sourcePoint" />
            <mxPoint x="760" y="420" as="targetPoint" />
          </mxGeometry>
        </mxCell>
        <mxCell id="6wLQkJ3tNqxlGUoKIvK2-42" value="Shipped For" style="shape=rhombus;html=1;dashed=0;whiteSpace=wrap;perimeter=rhombusPerimeter;" vertex="1" parent="1">
          <mxGeometry x="420" y="310" width="110" height="50" as="geometry" />
        </mxCell>
        <mxCell id="6wLQkJ3tNqxlGUoKIvK2-47" value="" style="endArrow=none;html=1;rounded=0;exitX=0.5;exitY=1;exitDx=0;exitDy=0;entryX=0.5;entryY=0;entryDx=0;entryDy=0;" edge="1" parent="1" source="6wLQkJ3tNqxlGUoKIvK2-4" target="6wLQkJ3tNqxlGUoKIvK2-12">
          <mxGeometry relative="1" as="geometry">
            <mxPoint x="340" y="410" as="sourcePoint" />
            <mxPoint x="500" y="410" as="targetPoint" />
          </mxGeometry>
        </mxCell>
        <mxCell id="6wLQkJ3tNqxlGUoKIvK2-50" value="" style="endArrow=none;html=1;rounded=0;exitX=0.5;exitY=1;exitDx=0;exitDy=0;entryX=0.5;entryY=0;entryDx=0;entryDy=0;" edge="1" parent="1" source="6wLQkJ3tNqxlGUoKIvK2-2" target="6wLQkJ3tNqxlGUoKIvK2-13">
          <mxGeometry relative="1" as="geometry">
            <mxPoint x="340" y="410" as="sourcePoint" />
            <mxPoint x="500" y="410" as="targetPoint" />
          </mxGeometry>
        </mxCell>
        <mxCell id="6wLQkJ3tNqxlGUoKIvK2-51" value="" style="endArrow=none;html=1;rounded=0;exitX=1;exitY=0.5;exitDx=0;exitDy=0;entryX=0;entryY=0.5;entryDx=0;entryDy=0;" edge="1" parent="1" source="6wLQkJ3tNqxlGUoKIvK2-2" target="6wLQkJ3tNqxlGUoKIvK2-42">
          <mxGeometry relative="1" as="geometry">
            <mxPoint x="340" y="410" as="sourcePoint" />
            <mxPoint x="500" y="410" as="targetPoint" />
          </mxGeometry>
        </mxCell>
        <mxCell id="6wLQkJ3tNqxlGUoKIvK2-82" value="1" style="edgeLabel;html=1;align=center;verticalAlign=middle;resizable=0;points=[];" vertex="1" connectable="0" parent="6wLQkJ3tNqxlGUoKIvK2-51">
          <mxGeometry x="-0.008" relative="1" as="geometry">
            <mxPoint x="5" y="-15" as="offset" />
          </mxGeometry>
        </mxCell>
        <mxCell id="6wLQkJ3tNqxlGUoKIvK2-52" value="" style="endArrow=none;html=1;rounded=0;exitX=1;exitY=0.5;exitDx=0;exitDy=0;entryX=0;entryY=0.5;entryDx=0;entryDy=0;" edge="1" parent="1" source="6wLQkJ3tNqxlGUoKIvK2-42" target="6wLQkJ3tNqxlGUoKIvK2-4">
          <mxGeometry relative="1" as="geometry">
            <mxPoint x="340" y="410" as="sourcePoint" />
            <mxPoint x="500" y="410" as="targetPoint" />
          </mxGeometry>
        </mxCell>
        <mxCell id="6wLQkJ3tNqxlGUoKIvK2-83" value="N" style="edgeLabel;html=1;align=center;verticalAlign=middle;resizable=0;points=[];" vertex="1" connectable="0" parent="6wLQkJ3tNqxlGUoKIvK2-52">
          <mxGeometry x="0.04" y="-2" relative="1" as="geometry">
            <mxPoint y="-17" as="offset" />
          </mxGeometry>
        </mxCell>
        <mxCell id="6wLQkJ3tNqxlGUoKIvK2-54" value="Order Date" style="shape=ellipse;html=1;dashed=0;whiteSpace=wrap;perimeter=ellipsePerimeter;" vertex="1" parent="1">
          <mxGeometry x="90" y="310" width="100" height="50" as="geometry" />
        </mxCell>
        <mxCell id="6wLQkJ3tNqxlGUoKIvK2-55" value="Order Number" style="shape=ellipse;html=1;dashed=0;whiteSpace=wrap;perimeter=ellipsePerimeter;" vertex="1" parent="1">
          <mxGeometry x="120" y="230" width="100" height="50" as="geometry" />
        </mxCell>
        <mxCell id="6wLQkJ3tNqxlGUoKIvK2-56" value="Paid" style="shape=ellipse;html=1;dashed=0;whiteSpace=wrap;perimeter=ellipsePerimeter;" vertex="1" parent="1">
          <mxGeometry x="740" y="360" width="100" height="50" as="geometry" />
        </mxCell>
        <mxCell id="6wLQkJ3tNqxlGUoKIvK2-57" value="Premised Date" style="shape=ellipse;html=1;dashed=0;whiteSpace=wrap;perimeter=ellipsePerimeter;" vertex="1" parent="1">
          <mxGeometry x="390" y="230" width="100" height="50" as="geometry" />
        </mxCell>
        <mxCell id="6wLQkJ3tNqxlGUoKIvK2-58" value="Invoice Date" style="shape=ellipse;html=1;dashed=0;whiteSpace=wrap;perimeter=ellipsePerimeter;" vertex="1" parent="1">
          <mxGeometry x="720" y="290" width="100" height="50" as="geometry" />
        </mxCell>
        <mxCell id="6wLQkJ3tNqxlGUoKIvK2-59" value="Invoice Number" style="shape=ellipse;html=1;dashed=0;whiteSpace=wrap;perimeter=ellipsePerimeter;" vertex="1" parent="1">
          <mxGeometry x="650" y="230" width="100" height="50" as="geometry" />
        </mxCell>
        <mxCell id="6wLQkJ3tNqxlGUoKIvK2-60" value="" style="endArrow=none;html=1;rounded=0;exitX=1;exitY=0.5;exitDx=0;exitDy=0;entryX=0;entryY=0.5;entryDx=0;entryDy=0;" edge="1" parent="1" source="6wLQkJ3tNqxlGUoKIvK2-54" target="6wLQkJ3tNqxlGUoKIvK2-2">
          <mxGeometry relative="1" as="geometry">
            <mxPoint x="340" y="410" as="sourcePoint" />
            <mxPoint x="500" y="410" as="targetPoint" />
          </mxGeometry>
        </mxCell>
        <mxCell id="6wLQkJ3tNqxlGUoKIvK2-61" value="" style="endArrow=none;html=1;rounded=0;exitX=1;exitY=1;exitDx=0;exitDy=0;entryX=0;entryY=0;entryDx=0;entryDy=0;" edge="1" parent="1" source="6wLQkJ3tNqxlGUoKIvK2-55" target="6wLQkJ3tNqxlGUoKIvK2-2">
          <mxGeometry relative="1" as="geometry">
            <mxPoint x="200" y="280" as="sourcePoint" />
            <mxPoint x="280" y="280" as="targetPoint" />
          </mxGeometry>
        </mxCell>
        <mxCell id="6wLQkJ3tNqxlGUoKIvK2-62" value="" style="endArrow=none;html=1;rounded=0;exitX=0.064;exitY=0.72;exitDx=0;exitDy=0;exitPerimeter=0;entryX=0.5;entryY=0;entryDx=0;entryDy=0;" edge="1" parent="1" source="6wLQkJ3tNqxlGUoKIvK2-59" target="6wLQkJ3tNqxlGUoKIvK2-4">
          <mxGeometry relative="1" as="geometry">
            <mxPoint x="340" y="410" as="sourcePoint" />
            <mxPoint x="500" y="410" as="targetPoint" />
          </mxGeometry>
        </mxCell>
        <mxCell id="6wLQkJ3tNqxlGUoKIvK2-63" value="" style="endArrow=none;html=1;rounded=0;exitX=0;exitY=0.5;exitDx=0;exitDy=0;entryX=1;entryY=0.25;entryDx=0;entryDy=0;" edge="1" parent="1" source="6wLQkJ3tNqxlGUoKIvK2-58" target="6wLQkJ3tNqxlGUoKIvK2-4">
          <mxGeometry relative="1" as="geometry">
            <mxPoint x="666" y="276" as="sourcePoint" />
            <mxPoint x="630" y="320" as="targetPoint" />
          </mxGeometry>
        </mxCell>
        <mxCell id="6wLQkJ3tNqxlGUoKIvK2-64" value="" style="endArrow=none;html=1;rounded=0;exitX=0;exitY=0.5;exitDx=0;exitDy=0;entryX=1;entryY=0.75;entryDx=0;entryDy=0;" edge="1" parent="1" source="6wLQkJ3tNqxlGUoKIvK2-56" target="6wLQkJ3tNqxlGUoKIvK2-4">
          <mxGeometry relative="1" as="geometry">
            <mxPoint x="730" y="325" as="sourcePoint" />
            <mxPoint x="680" y="333" as="targetPoint" />
          </mxGeometry>
        </mxCell>
        <mxCell id="6wLQkJ3tNqxlGUoKIvK2-65" value="Placed by" style="shape=rhombus;html=1;dashed=0;whiteSpace=wrap;perimeter=rhombusPerimeter;" vertex="1" parent="1">
          <mxGeometry x="275" y="210" width="90" height="50" as="geometry" />
        </mxCell>
        <mxCell id="6wLQkJ3tNqxlGUoKIvK2-66" value="" style="endArrow=none;html=1;rounded=0;exitX=0;exitY=1;exitDx=0;exitDy=0;entryX=1;entryY=0;entryDx=0;entryDy=0;" edge="1" parent="1" source="6wLQkJ3tNqxlGUoKIvK2-57" target="6wLQkJ3tNqxlGUoKIvK2-2">
          <mxGeometry relative="1" as="geometry">
            <mxPoint x="340" y="410" as="sourcePoint" />
            <mxPoint x="500" y="410" as="targetPoint" />
          </mxGeometry>
        </mxCell>
        <mxCell id="6wLQkJ3tNqxlGUoKIvK2-67" value="" style="endArrow=none;html=1;rounded=0;exitX=0.5;exitY=1;exitDx=0;exitDy=0;entryX=0.5;entryY=0;entryDx=0;entryDy=0;" edge="1" parent="1" source="6wLQkJ3tNqxlGUoKIvK2-65" target="6wLQkJ3tNqxlGUoKIvK2-2">
          <mxGeometry relative="1" as="geometry">
            <mxPoint x="340" y="410" as="sourcePoint" />
            <mxPoint x="500" y="410" as="targetPoint" />
          </mxGeometry>
        </mxCell>
        <mxCell id="6wLQkJ3tNqxlGUoKIvK2-81" value="N" style="edgeLabel;html=1;align=center;verticalAlign=middle;resizable=0;points=[];" vertex="1" connectable="0" parent="6wLQkJ3tNqxlGUoKIvK2-67">
          <mxGeometry x="-0.056" relative="1" as="geometry">
            <mxPoint x="5" y="-4" as="offset" />
          </mxGeometry>
        </mxCell>
        <mxCell id="6wLQkJ3tNqxlGUoKIvK2-68" value="Address" style="shape=ellipse;html=1;dashed=0;whiteSpace=wrap;perimeter=ellipsePerimeter;" vertex="1" parent="1">
          <mxGeometry x="410" y="50" width="100" height="50" as="geometry" />
        </mxCell>
        <mxCell id="6wLQkJ3tNqxlGUoKIvK2-69" value="City State" style="shape=ellipse;html=1;dashed=0;whiteSpace=wrap;perimeter=ellipsePerimeter;" vertex="1" parent="1">
          <mxGeometry x="410" y="130" width="100" height="50" as="geometry" />
        </mxCell>
        <mxCell id="6wLQkJ3tNqxlGUoKIvK2-70" value="Name" style="shape=ellipse;html=1;dashed=0;whiteSpace=wrap;perimeter=ellipsePerimeter;" vertex="1" parent="1">
          <mxGeometry x="130" y="50" width="100" height="50" as="geometry" />
        </mxCell>
        <mxCell id="6wLQkJ3tNqxlGUoKIvK2-71" value="Customer Number" style="shape=ellipse;html=1;dashed=0;whiteSpace=wrap;perimeter=ellipsePerimeter;" vertex="1" parent="1">
          <mxGeometry x="130" y="140" width="100" height="50" as="geometry" />
        </mxCell>
        <mxCell id="6wLQkJ3tNqxlGUoKIvK2-72" value="" style="endArrow=none;html=1;rounded=0;exitX=1;exitY=0.75;exitDx=0;exitDy=0;entryX=0;entryY=0.5;entryDx=0;entryDy=0;" edge="1" parent="1" source="6wLQkJ3tNqxlGUoKIvK2-5" target="6wLQkJ3tNqxlGUoKIvK2-69">
          <mxGeometry relative="1" as="geometry">
            <mxPoint x="340" y="290" as="sourcePoint" />
            <mxPoint x="500" y="290" as="targetPoint" />
          </mxGeometry>
        </mxCell>
        <mxCell id="6wLQkJ3tNqxlGUoKIvK2-73" value="" style="endArrow=none;html=1;rounded=0;exitX=1;exitY=0.5;exitDx=0;exitDy=0;entryX=0.04;entryY=0.848;entryDx=0;entryDy=0;entryPerimeter=0;" edge="1" parent="1" source="6wLQkJ3tNqxlGUoKIvK2-5" target="6wLQkJ3tNqxlGUoKIvK2-68">
          <mxGeometry relative="1" as="geometry">
            <mxPoint x="390" y="85" as="sourcePoint" />
            <mxPoint x="430" y="100" as="targetPoint" />
          </mxGeometry>
        </mxCell>
        <mxCell id="6wLQkJ3tNqxlGUoKIvK2-74" value="" style="endArrow=none;html=1;rounded=0;entryX=0;entryY=0.75;entryDx=0;entryDy=0;exitX=0.944;exitY=0.264;exitDx=0;exitDy=0;exitPerimeter=0;" edge="1" parent="1" source="6wLQkJ3tNqxlGUoKIvK2-71" target="6wLQkJ3tNqxlGUoKIvK2-5">
          <mxGeometry relative="1" as="geometry">
            <mxPoint x="230" y="160" as="sourcePoint" />
            <mxPoint x="270" y="130" as="targetPoint" />
          </mxGeometry>
        </mxCell>
        <mxCell id="6wLQkJ3tNqxlGUoKIvK2-75" value="" style="endArrow=none;html=1;rounded=0;entryX=0;entryY=0.25;entryDx=0;entryDy=0;" edge="1" parent="1" source="6wLQkJ3tNqxlGUoKIvK2-70" target="6wLQkJ3tNqxlGUoKIvK2-5">
          <mxGeometry relative="1" as="geometry">
            <mxPoint x="210" y="100" as="sourcePoint" />
            <mxPoint x="256" y="87" as="targetPoint" />
          </mxGeometry>
        </mxCell>
        <mxCell id="6wLQkJ3tNqxlGUoKIvK2-76" value="" style="endArrow=none;html=1;rounded=0;exitX=0.5;exitY=1;exitDx=0;exitDy=0;" edge="1" parent="1" source="6wLQkJ3tNqxlGUoKIvK2-5" target="6wLQkJ3tNqxlGUoKIvK2-65">
          <mxGeometry relative="1" as="geometry">
            <mxPoint x="340" y="290" as="sourcePoint" />
            <mxPoint x="500" y="290" as="targetPoint" />
          </mxGeometry>
        </mxCell>
        <mxCell id="6wLQkJ3tNqxlGUoKIvK2-86" value="1" style="edgeLabel;html=1;align=center;verticalAlign=middle;resizable=0;points=[];" vertex="1" connectable="0" parent="6wLQkJ3tNqxlGUoKIvK2-76">
          <mxGeometry x="0.12" y="2" relative="1" as="geometry">
            <mxPoint x="3" y="-4" as="offset" />
          </mxGeometry>
        </mxCell>
        <mxCell id="6wLQkJ3tNqxlGUoKIvK2-77" value="Discount %&amp;nbsp;" style="shape=ellipse;html=1;dashed=0;whiteSpace=wrap;perimeter=ellipsePerimeter;" vertex="1" parent="1">
          <mxGeometry x="265" y="10" width="100" height="50" as="geometry" />
        </mxCell>
        <mxCell id="6wLQkJ3tNqxlGUoKIvK2-78" value="" style="endArrow=none;html=1;rounded=0;exitX=0.5;exitY=1;exitDx=0;exitDy=0;entryX=0.5;entryY=0;entryDx=0;entryDy=0;" edge="1" parent="1" source="6wLQkJ3tNqxlGUoKIvK2-77" target="6wLQkJ3tNqxlGUoKIvK2-5">
          <mxGeometry relative="1" as="geometry">
            <mxPoint x="340" y="290" as="sourcePoint" />
            <mxPoint x="500" y="290" as="targetPoint" />
          </mxGeometry>
        </mxCell>
      </root>
    </mxGraphModel>
  </diagram>
</mxfile>
